<svg width="18" height="18" viewBox="0 0 18 18" fill="none" xmlns="http://www.w3.org/2000/svg">
<path d="M15.7663 2.99752C15.3753 2.58879 14.9111 2.26455 14.4002 2.04333C13.8893 1.82211 13.3417 1.70825 12.7887 1.70825C12.2357 1.70825 11.6881 1.82211 11.1772 2.04333C10.6663 2.26455 10.2021 2.58879 9.81116 2.99752L8.9998 3.8454L8.18843 2.99752C7.39874 2.17229 6.32768 1.70868 5.21089 1.70868C4.09409 1.70868 3.02303 2.17229 2.23334 2.99752C1.44365 3.82276 1 4.94201 1 6.10907C1 7.27613 1.44365 8.39538 2.23334 9.22062L3.0447 10.0685L8.9998 16.2916L14.9549 10.0685L15.7663 9.22062C16.1574 8.81207 16.4677 8.327 16.6794 7.79311C16.891 7.25922 17 6.68698 17 6.10907C17 5.53116 16.891 4.95892 16.6794 4.42503C16.4677 3.89114 16.1574 3.40607 15.7663 2.99752Z" stroke="black" stroke-width="2" stroke-linecap="round" stroke-linejoin="round"/>
</svg>
