<svg width="40" height="40" viewBox="0 0 40 40" fill="none" xmlns="http://www.w3.org/2000/svg">
<circle cx="20" cy="20" r="20" fill="#E3E3E3"/>
<path d="M24.4 15.6H24.408M16 12H24C26.2091 12 28 13.7909 28 16V24C28 26.2091 26.2091 28 24 28H16C13.7909 28 12 26.2091 12 24V16C12 13.7909 13.7909 12 16 12ZM23.2 19.496C23.2987 20.1618 23.185 20.8418 22.875 21.4392C22.565 22.0367 22.0745 22.5211 21.4733 22.8237C20.8721 23.1263 20.1908 23.2317 19.5262 23.1247C18.8617 23.0178 18.2478 22.7041 17.7719 22.2281C17.2959 21.7522 16.9822 21.1383 16.8753 20.4738C16.7683 19.8092 16.8737 19.1279 17.1763 18.5267C17.4789 17.9255 17.9633 17.435 18.5608 17.125C19.1582 16.815 19.8382 16.7013 20.504 16.8C21.1831 16.9007 21.8119 17.2172 22.2974 17.7026C22.7828 18.1881 23.0993 18.8169 23.2 19.496Z" stroke="white" stroke-width="2" stroke-linecap="round" stroke-linejoin="round"/>
</svg>
