<svg width="24" height="24" viewBox="0 0 24 24" fill="none" xmlns="http://www.w3.org/2000/svg">
<path d="M10.2222 5C10.2222 4.44772 9.77451 4 9.22222 4H5C4.44772 4 4 4.44771 4 5V9.22222C4 9.77451 4.44771 10.2222 5 10.2222H9.22222C9.77451 10.2222 10.2222 9.77451 10.2222 9.22222V5Z" fill="#A5A4A3"/>
<path d="M20 5C20 4.44772 19.5523 4 19 4H14.7778C14.2255 4 13.7778 4.44771 13.7778 5V9.22222C13.7778 9.77451 14.2255 10.2222 14.7778 10.2222H19C19.5523 10.2222 20 9.77451 20 9.22222V5Z" fill="#A5A4A3"/>
<path d="M20 14.7778C20 14.2255 19.5523 13.7778 19 13.7778H14.7778C14.2255 13.7778 13.7778 14.2255 13.7778 14.7778V19C13.7778 19.5523 14.2255 20 14.7778 20H19C19.5523 20 20 19.5523 20 19V14.7778Z" fill="#A5A4A3"/>
<path d="M10.2222 14.7778C10.2222 14.2255 9.77451 13.7778 9.22222 13.7778H5C4.44772 13.7778 4 14.2255 4 14.7778V19C4 19.5523 4.44771 20 5 20H9.22222C9.77451 20 10.2222 19.5523 10.2222 19V14.7778Z" fill="#A5A4A3"/>
</svg>
