<svg width="11" height="14" viewBox="0 0 11 14" fill="none" xmlns="http://www.w3.org/2000/svg">
<g id="111_ICONS_0_addPlus">
<path id="111_ICONS_addPlus_1" fill-rule="evenodd" clip-rule="evenodd" d="M1.75 0C1.28587 0 0.840752 0.184374 0.512563 0.512563C0.184374 0.840752 0 1.28587 0 1.75V12.25C0 12.7141 0.184374 13.1592 0.512563 13.4874C0.840752 13.8156 1.28587 14 1.75 14H8.75C9.21413 14 9.65925 13.8156 9.98744 13.4874C10.3156 13.1592 10.5 12.7141 10.5 12.25V4.73725C10.4999 4.27316 10.3155 3.82811 9.98725 3.5L7 0.51275C6.67189 0.184539 6.22684 9.91155e-05 5.76275 0H1.75ZM6.125 5.25C6.125 5.01794 6.03281 4.79538 5.86872 4.63128C5.70462 4.46719 5.48206 4.375 5.25 4.375C5.01794 4.375 4.79538 4.46719 4.63128 4.63128C4.46719 4.79538 4.375 5.01794 4.375 5.25V7H2.625C2.39294 7 2.17038 7.09219 2.00628 7.25628C1.84219 7.42038 1.75 7.64294 1.75 7.875C1.75 8.10706 1.84219 8.32962 2.00628 8.49372C2.17038 8.65781 2.39294 8.75 2.625 8.75H4.375V10.5C4.375 10.7321 4.46719 10.9546 4.63128 11.1187C4.79538 11.2828 5.01794 11.375 5.25 11.375C5.48206 11.375 5.70462 11.2828 5.86872 11.1187C6.03281 10.9546 6.125 10.7321 6.125 10.5V8.75H7.875C8.10706 8.75 8.32962 8.65781 8.49372 8.49372C8.65781 8.32962 8.75 8.10706 8.75 7.875C8.75 7.64294 8.65781 7.42038 8.49372 7.25628C8.32962 7.09219 8.10706 7 7.875 7H6.125V5.25Z" fill="black"/>
</g>
</svg>
