<svg width="14" height="15" viewBox="0 0 14 15" fill="none" xmlns="http://www.w3.org/2000/svg">
<path d="M1.18 4.21016L7 7.47991L12.82 4.21016M7 14V7.47344M13 10.0633V4.88353C12.9998 4.65644 12.938 4.43341 12.821 4.23681C12.704 4.0402 12.5358 3.87694 12.3333 3.7634L7.66667 1.17349C7.46397 1.05983 7.23405 1 7 1C6.76595 1 6.53603 1.05983 6.33333 1.17349L1.66667 3.7634C1.46418 3.87694 1.29599 4.0402 1.17897 4.23681C1.06196 4.43341 1.00024 4.65644 1 4.88353V10.0633C1.00024 10.2904 1.06196 10.5135 1.17897 10.7101C1.29599 10.9067 1.46418 11.0699 1.66667 11.1835L6.33333 13.7734C6.53603 13.887 6.76595 13.9469 7 13.9469C7.23405 13.9469 7.46397 13.887 7.66667 13.7734L12.3333 11.1835C12.5358 11.0699 12.704 10.9067 12.821 10.7101C12.938 10.5135 12.9998 10.2904 13 10.0633Z" stroke="black" stroke-width="1.5" stroke-linecap="round" stroke-linejoin="round"/>
</svg>
