<svg width="146" height="17" viewBox="0 0 146 17" fill="none" xmlns="http://www.w3.org/2000/svg">
<path d="M8.12 0.199999C9.704 0.199999 10.976 0.631999 11.936 1.496C12.896 2.344 13.376 3.408 13.376 4.688C13.376 5.456 13.192 6.176 12.824 6.848C12.472 7.504 11.992 8.032 11.384 8.432C12.296 8.832 12.976 9.4 13.424 10.136C13.872 10.856 14.096 11.64 14.096 12.488C14.096 13.784 13.608 14.864 12.632 15.728C11.672 16.576 10.368 17 8.72 17H0.32V0.199999H8.12ZM3.8 10.088V13.76H8.48C9.056 13.76 9.52 13.584 9.872 13.232C10.24 12.88 10.424 12.448 10.424 11.936C10.424 11.424 10.24 10.992 9.872 10.64C9.52 10.272 9.056 10.088 8.48 10.088H3.8ZM3.8 3.44V7.184H8C8.576 7.184 9.04 7 9.392 6.632C9.76 6.264 9.944 5.824 9.944 5.312C9.944 4.8 9.76 4.36 9.392 3.992C9.04 3.624 8.576 3.44 8 3.44H3.8ZM24.3149 0.199999H29.7869L35.3789 17H31.6589L30.5789 13.664H23.4509L22.3469 17H18.6029L24.3149 0.199999ZM29.5229 10.4L27.0509 2.696L24.5069 10.4H29.5229ZM40.7778 17V0.199999H48.4338C50.0818 0.199999 51.4818 0.775999 52.6338 1.928C53.8018 3.08 54.3858 4.44 54.3858 6.008C54.3858 7.096 54.0738 8.104 53.4498 9.032C52.8418 9.96 52.0338 10.624 51.0258 11.024L54.6258 17H50.5458L47.2098 11.48H44.3778V17H40.7778ZM48.4338 8.36C49.1218 8.36 49.7058 8.12 50.1858 7.64C50.6658 7.16 50.9058 6.576 50.9058 5.888C50.9058 5.2 50.6658 4.624 50.1858 4.16C49.7058 3.68 49.1218 3.44 48.4338 3.44H44.3778V8.36H48.4338ZM59.3197 0.199999H72.9517V3.56H68.0317V17H64.4317V3.56H59.3197V0.199999ZM90.8724 0.199999V3.536H82.3044V6.968H89.9124V10.232H82.3044V13.664H90.8724V17H78.7044V0.199999H90.8724ZM97.1169 17V0.199999H104.773C106.421 0.199999 107.821 0.775999 108.973 1.928C110.141 3.08 110.725 4.44 110.725 6.008C110.725 7.096 110.413 8.104 109.789 9.032C109.181 9.96 108.373 10.624 107.365 11.024L110.965 17H106.885L103.549 11.48H100.717V17H97.1169ZM104.773 8.36C105.461 8.36 106.045 8.12 106.525 7.64C107.005 7.16 107.245 6.576 107.245 5.888C107.245 5.2 107.005 4.624 106.525 4.16C106.045 3.68 105.461 3.44 104.773 3.44H100.717V8.36H104.773ZM116.607 17V0.199999H120.207V13.664H128.391V17H116.607ZM130.198 0.199999H134.038L137.686 7.76L141.334 0.199999H145.174L139.534 11.744V17H135.91V11.84L130.198 0.199999Z" fill="#A5A4A3"/>
</svg>
