<svg width="98" height="12" viewBox="0 0 98 12" fill="none" xmlns="http://www.w3.org/2000/svg">
<path d="M6.08 0.799999C7.136 0.799999 7.984 1.088 8.624 1.664C9.264 2.22933 9.584 2.93867 9.584 3.792C9.584 4.304 9.46133 4.784 9.216 5.232C8.98133 5.66933 8.66133 6.02133 8.256 6.288C8.864 6.55467 9.31733 6.93333 9.616 7.424C9.91467 7.904 10.064 8.42667 10.064 8.992C10.064 9.856 9.73867 10.576 9.088 11.152C8.448 11.7173 7.57867 12 6.48 12H0.88V0.799999H6.08ZM3.2 7.392V9.84H6.32C6.704 9.84 7.01333 9.72267 7.248 9.488C7.49333 9.25333 7.616 8.96533 7.616 8.624C7.616 8.28267 7.49333 7.99467 7.248 7.76C7.01333 7.51467 6.704 7.392 6.32 7.392H3.2ZM3.2 2.96V5.456H6C6.384 5.456 6.69333 5.33333 6.928 5.088C7.17333 4.84267 7.296 4.54933 7.296 4.208C7.296 3.86667 7.17333 3.57333 6.928 3.328C6.69333 3.08267 6.384 2.96 6 2.96H3.2ZM16.8766 0.799999H20.5246L24.2526 12H21.7726L21.0526 9.776H16.3006L15.5646 12H13.0686L16.8766 0.799999ZM20.3486 7.6L18.7006 2.464L17.0046 7.6H20.3486ZM27.8519 12V0.799999H32.9559C34.0545 0.799999 34.9879 1.184 35.7559 1.952C36.5345 2.72 36.9239 3.62667 36.9239 4.672C36.9239 5.39733 36.7159 6.06933 36.2999 6.688C35.8945 7.30667 35.3559 7.74933 34.6839 8.016L37.0839 12H34.3639L32.1399 8.32H30.2519V12H27.8519ZM32.9559 6.24C33.4145 6.24 33.8039 6.08 34.1239 5.76C34.4439 5.44 34.6039 5.05067 34.6039 4.592C34.6039 4.13333 34.4439 3.74933 34.1239 3.44C33.8039 3.12 33.4145 2.96 32.9559 2.96H30.2519V6.24H32.9559ZM40.2131 0.799999H49.3011V3.04H46.0211V12H43.6211V3.04H40.2131V0.799999ZM61.2482 0.799999V3.024H55.5362V5.312H60.6082V7.488H55.5362V9.776H61.2482V12H53.1362V0.799999H61.2482ZM65.4113 12V0.799999H70.5153C71.6139 0.799999 72.5473 1.184 73.3153 1.952C74.0939 2.72 74.4833 3.62667 74.4833 4.672C74.4833 5.39733 74.2753 6.06933 73.8593 6.688C73.4539 7.30667 72.9153 7.74933 72.2433 8.016L74.6433 12H71.9233L69.6993 8.32H67.8113V12H65.4113ZM70.5153 6.24C70.9739 6.24 71.3633 6.08 71.6833 5.76C72.0033 5.44 72.1633 5.05067 72.1633 4.592C72.1633 4.13333 72.0033 3.74933 71.6833 3.44C71.3633 3.12 70.9739 2.96 70.5153 2.96H67.8113V6.24H70.5153ZM78.405 12V0.799999H80.805V9.776H86.261V12H78.405ZM87.4656 0.799999H90.0256L92.4576 5.84L94.8896 0.799999H97.4496L93.6896 8.496V12H91.2736V8.56L87.4656 0.799999Z" fill="black"/>
</svg>
